<svg version="1.1" viewBox="0 0 481.17 491.1" xmlns="http://www.w3.org/2000/svg">
  <g transform="translate(-12.367 -16.322)">
    <path d="m346.19 505.11c-18.532-12.184-5.6118-43.451-33.825-45.727-18.215-27.248-53.073 14.785-66.476-18.545-20.187-20.065-2.8699-40.628 13.957-54.104-2.0664-23.038 5.6176-47.391-19.578-59.766-12.179-19.085 12.453-59.366 36.863-46.115 19.499 11.171 40.565-9.8882 54.955-19.82-3.6099-30.605 27.099-42.296 51.574-30.92 21.603 10.512 5.6979 42.555 34.577 44.376 18.438 26.177 53.333-14.789 66.524 18.742 19.645 19.757 2.5464 40.272-14.456 53.202 2.8596 21.593-7.1636 46.983 18.07 58.161 15.571 17.359-8.5025 57.985-31.882 49.099-20.495-12.855-47.057 6.8696-58.907 20.921 1.1215 33.424-25.361 36.124-51.397 30.494zm33.752-100.27c32.128-10.67 34.622-61.347 3.3647-74.648-26.93-14.841-62.859 9.5444-58.935 39.964 1.5171 26.314 31.13 45.353 55.571 34.683zm-333.25 40.507c-22.115-5.4853-36.56-28.542-33.247-50.883-1.0757-114.32-2.0379-228.71 0.7388-342.99 4.6499-20.659 24.941-36.686 46.407-33.664 129.3-1.8344 258.66-2.2265 387.94 0.34487 25.729 1.6276 41.462 29.55 38.753 53.514 0.70747 56.809 1.1219 113.98-5.355 170.47-12.111-2.3844-31.569 2.0339-43.207 2.0797-3.9876-35.218-1.2668-70.977-2.034-106.43h-374v259c46.468 0.5111 93.141-1.2386 139.45 1.1992-12.486 18.622 16.367 53.326-19.128 46.937-45.308 2.3268-91.121 4.961-136.32 0.4309zm43.689-347.28c24.223-12.199-0.23695-49.894-21.294-32.738-18.453 13.575 0.57609 44.841 21.294 32.738zm57 0c24.543-12.257-0.23114-49.977-21.131-32.563-18.322 13.711 0.28374 44.247 21.131 32.563zm53.412 1.5712c27.886-7.7491 7.3567-51.586-16.272-34.987-18.668 11.239-4.4291 42.196 16.272 34.987z"/>
  </g>
</svg>
