<svg width="1em" height="1em" viewBox="0 0 208.31 322.77" xmlns="http://www.w3.org/2000/svg">
  <g transform="translate(-15.206 -30.917)">
    <path fill="currentColor"
      d="m88.867 353.21c-19.156-0.78416-38.624 1.0386-57.563-2.3426-11.229-5.1534-16.374-18.294-15.502-30.162-0.32961-11.829-0.39944-23.663-0.59625-35.495h208.29c-0.70654 17.022 0.89741 34.331-2.5926 51.08-4.502 12.996-19.102 17.391-31.66 16.841-33.442 1.138-66.928 0.20592-100.38 0.0792zm44.539-24.02c15.105-6.9637 10.39-31.41-5.8962-33.186-13.37-3.9916-33.07 4.9014-31.4 20.742 2.9668 15.572 25.428 17.668 37.296 12.444zm-23.384-11.809c-9.7802-14.251 32.098-10.803 17.028 0.98136-5.4099 1.2622-12.038 1.8727-17.028-0.98136zm-93.988-44.838c-1.145-61.431-0.49594-122.89-0.66667-184.33h208v185c-69.11-0.17502-138.24 0.48683-207.33-0.66667zm119.33-24.333c1.6801-7.1335 4.62-21.196 14.728-11.847 12.551 6.9868 29.569-10.469 26.09-23.249-10.6-8.9824 1.0332-17.035 10.629-16.146 2.9552-9.4863 8.0198-32.442-6.0167-33.758-15.301-0.40318-4.7851-13.717-2.7383-20.677-7.2647-10.027-20.241-29.457-32.534-14.719-12.792 1.5552-4.1308-22.091-20.442-16.57-11.195-0.89937-27.306-1.967-24.845 14.028-9.7623 4.7373-25.345-8.746-33.415 7.3935-14.538 8.9945 11.197 28.547-8.6834 30.541-14.748 0.96748-8.5241 24.552-5.8813 33.965 12.117-1.8909 20.173 9.6721 8.5808 17.887 0.90581 10.57 13.861 22.733 23.943 24.283 8.4891-11.401 19.165-3.4975 17.873 8.3994 9.2806 4.001 23.243 3.4643 32.712 0.46901zm-21-13.865c-1.924-11.08-21.946-19.44-30.526-10.789-16.132-1.7126 4.6666-17.022-6.6379-25.096-0.17847-9.6963-8.9181-11.814-14.767-14.571-3.9731-13.01 16.507-6.0605 14.766-20.451 7.6741-7.7937 0.33532-14.852-0.36223-22.251 7.1768-8.2808 15.703 8.0798 23.747-2.0548 10.575-0.47529 13.02-9.6876 16.826-16.501 10.271-0.68126 6.1048 16.64 18.228 15.439 7.4255 5.7365 14.28 4.787 21.065-0.36142 14.091 5.2202-5.9419 14.843 4.0784 23.459 0.74703 10.873 9.7642 13.365 16.876 17.877 1.9913 10.832-16.017 4.1292-15.223 16.538-6.2675 8.4028-3.6746 16.499-0.82169 24.418-5.9139 9.5451-15.33-7.3243-23.408 2.2075-10.037 0.59521-13.561 9.2253-15.519 15.942-2.9907-0.31772-9.6458 1.7531-8.3213-3.8064zm18.772-21.609c20.262-8.1533 27.856-36.274 13.976-53.338-15.065-20.671-52.85-16.215-60.323 9.1928-10.288 23.821 14.029 52.165 39.061 46.547 2.5135-0.50428 4.963-1.3188 7.2862-2.4012zm-22.272-10.915c-16.02-6.0472-19.181-30.602-4.2459-39.682 14.108-10.769 37.138 1.7608 35.368 19.545-0.16209 14.927-17.47 26.071-31.122 20.137zm-95.291-137.36c-0.3939-13.65 6.1377-30.548 21.566-32.111 53.373-1.997 106.85-1.7261 160.23-0.25569 15.836-1.2431 25.941 14.805 25.623 29.107 4.0211 16.071-16.715 13.673-26.84 14.465-52.455 0.79057-104.95 0.97433-157.4-0.155-7.5326-1.3077-25.271 1.4901-23.186-11.05zm114.23-1.4725c7.7223-12.598-24.331-13.932-22.111-2.1755 2.9434 6.988 17.099 5.245 22.111 2.1755z" />
  </g>
</svg>