<svg version="1.1" viewBox="0 0 106.4 106.59" xmlns="http://www.w3.org/2000/svg">
  <g transform="translate(-14.79 -9.52)">
    <path d="m54.437 114.3c-19.75-4.951-35.444-22.265-38.763-42.305-3.604-18.669 4.0367-38.74 18.865-50.569 15.583-13.296 39.001-15.518 57.159-6.3481 17.137 8.0603 29.053 26.004 29.421 44.995 1.1455 20.672-10.916 41.239-29.478 50.384-11.373 5.8272-24.88 7.2368-37.205 3.8426zm25.187-25.899c5.6384-1.9648 11.318-4.8556 15.149-9.5448 1.2986-5.1942-3.2176-10.075-7.1724-12.907-4.2332-3.909-8.9582-1.3731-12.856 1.1504-5.4113 1.0974-11.653 1.351-16.516-1.6202-4.3309-4.0704-11.393 0.51433-14.148 4.6039-4.3168 4.3624-4.2968 11.381 2.1939 13.559 9.8948 5.6025 22.29 7.6545 33.351 4.7591zm26.717-18.252c3.7387-4.3186-0.50847-10.243-4.4459-12.705-4.8278-4.2678-10.256-0.65241-15.297 0.54371-2.2735-0.8128-9.5854 1.1448-4.3959 2.8518 6.5628 0.78924 12.116 5.8934 15.005 11.646 1.3628 5.6874 7.1942-0.40929 9.1331-2.3364zm-67.233 1.8219c3.1092-5.7058 8.9284-9.9982 15.149-11.738 2.2889 0.74581 4.1914 0.2867 1.2894-1.5531-5.9206 0.33578-10.762-3.9368-16.501-3.6423-6.3684 0.99387-12.793 8.5821-9.1512 14.91 1.9323 2.24 7.8166 7.8107 9.2144 2.0238zm35.666-12.201c7.459-4.3442 5.9484-17.662-2.7111-19.548-5.6929-1.5472-12.49 1.2188-14.184 7.1858-2.6903 7.7686 5.5903 16.449 13.484 13.876 1.205-0.33201 2.3505-0.85759 3.4119-1.5138zm-20.14-6.0177c-1.3754-5.2473 1.6302-10.299 4.8646-14.174-2.0195-4.9882-10.622-5.4105-14.274-1.4066-4.7596 3.9116-4.7177 12.085 0.61549 15.503 1.7171 1.4578 9.1528 4.5998 8.7943 0.07728zm37.034-0.16462c7.1909-5.7363 1.5887-19.815-7.7352-18.161-4.1165 0.1465-8.7394 3.6051-3.998 6.931 3.9227 3.7044 0.93719 10.48 4.1376 13.483 2.681 0.53679 5.5378-0.55298 7.5955-2.2527z"/>
  </g>
</svg>
