<svg version="1.1" viewBox="0 0 327.54 135.58" xmlns="http://www.w3.org/2000/svg">
  <g transform="translate(-21.42 -19.699)" fill-opacity=".062">
    <path d="m260.65 35.057c-21.39-1.8971-98.121-11.593-116-14.657-1.375-0.23571 43.822-0.48984 100.44-0.56474l102.94-0.13618-2.9371 3.0673c-3.8009 3.9693-12.987 8.263-22.437 10.488-7.3051 1.7197-49.203 2.9383-62 1.8034zm10.252-3.0201c-1.4389-0.58074-0.59359-5.4027 1.1522-6.573 0.74227-0.49756 0.67353-0.73963-0.21299-0.75-0.71996-0.0084-1.0309-0.46531-0.69098-1.0153s0.18962-1-0.33399-1c-1.3266 0-2.166 2.5507-2.166 6.5818 0 2.6188 0.40924 3.3998 1.75 3.3393 1.0426-0.04703 1.2454-0.28261 0.50172-0.58276zm11.748-0.22718c0-0.48889-0.73907-0.82639-1.6424-0.75-2.5368 0.21453-2.7654-2.164-0.24359-2.534 2.7187-0.39891 3.6496-2.5968 1.4564-3.4385-3.0877-1.1849-6.3068 4.5417-3.9038 6.9447 0.98277 0.98277 4.3333 0.81095 4.3333-0.22222zm-2.5-5.1111c0.33992-0.55 0.81648-1 1.059-1s0.44098 0.45 0.44098 1-0.47656 1-1.059 1-0.7809-0.45-0.44098-1zm9.9987 3.006c0.36168-1.6467 1.4099-3.4409 2.3295-3.9871 1.4168-0.84158 1.3326-0.94812-0.55238-0.69839-2.7725 0.36731-2.8526 0.46567-3.6071 4.4295-0.77725 4.0833 0.93678 4.323 1.83 0.25596zm13.501 2.1052c0-0.48889-0.73907-0.82639-1.6424-0.75-2.5368 0.21453-2.7654-2.164-0.24359-2.534 2.7187-0.39891 3.6496-2.5968 1.4564-3.4385-3.0877-1.1849-6.3068 4.5417-3.9038 6.9447 0.98277 0.98277 4.3333 0.81095 4.3333-0.22222zm-2.5-5.1111c0.33992-0.55 0.81648-1 1.059-1s0.44098 0.45 0.44098 1-0.47656 1-1.059 1-0.7809-0.45-0.44098-1zm10.12 2.8283c1.3464-4.6948 3.7004-5.0548 2.8334-0.43335-0.40957 2.1832-0.28278 3.605 0.32149 3.605 1.1868 0 2.1509-5.5015 1.2262-6.9976-0.60168-0.97353-4.4782-0.9334-5.332 0.0552-0.21017 0.24334-0.66052 1.9049-1.0008 3.6924-0.79575 4.1804 0.75731 4.2428 1.9517 0.07835z" fill="#227abf"/>
    <path d="m261.15 154.66c-59.99-4.7981-119.14-17.437-179.27-20.663-18.644 0.17876-38.68-1.601-55.963 6.7087-8.3758 4.6206-2.0781-15.394-4.1815-20.926-0.14769-30.31-0.06774-60.621-0.08827-90.932 19.844-10.903 43.437-8.8675 65.265-8.6246 68.975 4.6012 136.88 20.724 206.16 21.584 19.129-0.24583 39.68-2.3208 55.451-14.104 0.90929 37.946 0.10593 75.926 0.0953 113.89-21.129 15.781-49.075 13.238-73.959 13.697-4.5069-0.0945-9.0143-0.26434-13.508-0.62562zm-217.37-39.958c12.001 1.9721 11.186-11.429 10.873-19.523-1.3689-6.0554 7.3092-2.4193 10.908-3.7224 9.3221 3.1675 14.385-10.585 9.6755-14.725-6.6945-0.17675-13.389-0.35351-20.084-0.53026 0.61528-3.5065-3.1966-11.165 2.9327-9.5 8.0607-0.75591 19.183 2.7637 23.972-5.2857 1.2452-5.803 2.2076-13.19-5.7811-10.714-12.819 0.5347-26.156-1.5842-38.51 2.2172-5.6614 9.7269-1.9392 22.837-3.1135 33.937 2.8772 7.89-6.4961 30.394 6.6868 27.894zm192.29-0.62536c13.918-4.1289 16.035-19.723 14.995-32.083 0.0304-4.9305 0.0608-9.861 0.0911-14.792-13.932 0.2724-28.609-2.4461-41.826 2.9728-17.525 9.6763-13.616 41.962 7.2921 44.635 6.3921 1.3688 13.206 1.3245 19.448-0.73307zm-17.016-13.891c-5.2342-9.7871-0.7154-24.198 11.996-20.484 4.1422 0.83166 0.24288 9.4695 1.1996 13.247 1.1679 8.052-7.4202 13.61-13.195 7.2367zm-121.71 12.342c4.2849-10.816-0.58542-28.083 16.236-30.225 5.0712-1.7221 8.7452-16.707 1.5361-15.601-8.5199-3.0126-14.784 8.2741-16.416 11.792-0.85916-3.5562 1.7167-10.559-1.4584-11.792-11.053-2.2667-18.478 5.9294-15.508 16.936-0.13107 10.354-0.05472 20.709-0.07526 31.064 5.1531-0.42856 11.406 1.3326 15.686-2.1743zm40.86-0.28024c4.7004-8.336 1.5528-19.038 2.4546-28.388v-17.432c-7.6168 0.32734-19.454 0.69958-18.436 11.298-0.43068 12.32-0.45158 24.65-0.67611 36.975 5.4876-0.52668 12.244 1.5918 16.658-2.4546zm25.443 0.66509c3.2524-5.2821 4.2561-21.354 10.472-8.3009 3.8857 12.446 17.226 10.621 27.539 9.5747-6.001-9.8602-12.638-19.319-18.988-28.956 5.7058-5.9193 11.911-11.417 16.988-17.894-6.3019-1.1995-12.842-0.14806-19.244-0.13369-4.5853 4.8959-9.1706 9.7917-13.756 14.688v-31.188c-7.4218-0.31162-19.298-0.79864-18.317 9.8883-0.62558 18.028-0.50378 36.075-0.7682 54.112 5.3273-0.3413 11.296 1.0718 16.074-1.7895zm108.1 0.50766c9.1177-8.0484-1.8328-25.241 8.5602-31.601 11.62-1.0187 7.0729 14.733 8.2927 22.284 1.1304 3.426-2.3121 11.531 3.0778 10.599 12.239 3.0866 17.589-7.8961 15.012-18.814-5.1031-11.07 13.226-21.543 12.803-6.145 0.28986 8.316 0.12237 16.639 0.16733 24.959 8.6735 0.79895 20.696 0.0612 17.897-12.187-1.6322-10.72 3.8933-25.117-5.7307-32.765-9.6359-9.0073-22.599 3.0936-29.445 2.6494-7.1797-10.502-22.266-3.4574-28.539 0.09142-0.36471-13.179-22.353-2.7124-16.747 8.9033-0.28949 11.101-0.36238 22.206-0.54446 33.309 5.0553-0.20309 10.386 0.56247 15.197-1.2818zm-134.16-52.307c3.0481-2.395 6.0782-15.839 0.24289-15.411-9.8327-2.7869-21.042 7.0509-12.135 16.035 3.4122 2.9861 8.678 2.2407 11.893-0.62386z" fill="#d51f26"/>
  </g>
</svg>
