<svg version="1.1" viewBox="0 0 327.97 135.91" xmlns="http://www.w3.org/2000/svg">
  <g transform="translate(-88.85 -107.83)">
    <g transform="translate(33.948 -43.647)">
      <path d="m293.9 166.79c-21.636-1.9188-99.283-11.724-116-14.649-1.375-0.24054 43.822-0.49863 100.44-0.57353 102.94-0.13618 102.94-0.13618 100 2.9311-9.7381 10.17-47.075 15.605-84.437 12.291z" fill="#227abf"/>
      <path d="m294.4 286.39c-18.43-1.5011-46.09-4.7976-79.56-9.4818-99.837-13.973-137.72-15.061-155.67-4.4729-1.8612 1.0982-3.5833 1.9966-3.8269 1.9966s-0.44284-25.617-0.44284-56.926v-56.926l5.2736-2.5802c19.856-9.7147 55.279-8.7563 147.4 3.9881 110.73 15.32 159.02 14.983 172.45-1.2034 0.61697-0.74341 1.4042-1.3517 1.7493-1.3518 2.6968-8e-4 -0.0937 114.02-2.8383 115.98-13.758 9.7962-46.643 14.069-84.534 10.982zm-25.086-40.583c11.652-3.9702 14.863-10.691 14.991-31.375l0.0955-15.5-14.372-0.2782c-29.105-0.5634-38.351 5.2566-38.351 24.142 0 19.05 17.629 29.828 37.636 23.011zm-17.016-13.891c-5.6942-8.6905-1.2353-20.484 7.7448-20.484 6.0962 0 6.0962 0 5.6832 9.4433-0.56975 13.027-8.0804 19.202-13.428 11.041zm-166.85 12.062c2.2402-2.2402 2.4546-3.2356 2.4546-11.4 0-8.946 0-8.946 8.8965-9.2954 18.275-0.71795 20.442-14.588 2.3535-15.066-16.884-0.44578-17.605-9.7838-0.75513-9.7838 15.219 0 17.505-1.4472 17.505-11.082 0-4.9182 0-4.9182-19.851-4.9182-30.319 0-28.149-2.7395-28.149 35.547v28.453h7.5454c6.6779 0 7.8277-0.28222 10-2.4546zm45.14 0.28024c2.0372-1.9138 2.3212-3.1418 2.3709-10.25 0.0866-12.389 1.1658-14.545 8.8067-17.596 8.2361-3.2887 10.137-5.6495 10.137-12.59 0-9.4818-12.792-7.4471-17.887 2.845-2.1115 4.2658-2.1115 4.2658-2.1123-1.9842s-7.9e-4 -6.25-5.0504-6.25c-11.596 0-11.95 0.80341-11.95 27.082v20.918h6.6856c5.4879 0 7.1002-0.3895 9-2.1743zm40.86-0.28024c2.4546-2.4545 2.4546-2.4545 2.4546-24.137v-21.682l-6.6219 0.53154c-11.58 0.9295-11.815 1.4461-12.184 26.763l-0.30613 20.979h7.1016c6.2066 0 7.4109-0.30933 9.5561-2.4546zm25.443 0.66509c1.5497-1.2548 2.3687-3.2714 2.7416-6.75 0.51458-4.8009 1.6871-7.4605 3.289-7.4605 0.42573 0 2.8482 3.3278 5.3833 7.3952 2.5351 4.0674 5.3185 7.6674 6.1853 8 1.9142 0.73454 20.412 0.81542 20.412 0.0893 0-0.28355-4.2724-6.9148-9.4942-14.736l-9.4942-14.22 8.4942-8.5338c10.497-10.546 10.53-10.261-1.1278-9.8407-9.622 0.34653-9.622 0.34653-16.5 7.6903l-6.878 7.3438v-31.188h-6.4442c-12.155 0-12.004-0.42025-12.348 34.412l-0.29266 29.588h6.9319c5.1701 0 7.4936-0.45481 9.1418-1.7895zm108.1 0.50766c3.1929-2.4515 3.9133-5.5959 3.9133-17.081 0-13.265 0.79887-14.949 6.8514-14.44 5.3553 0.45034 6.1165 2.8146 6.1339 19.053l0.0147 13.75h6.9274c10.026 0 11.068-1.5386 11.087-16.385 0.0181-13.651 0.93612-15.984 6.4684-16.438 6.0511-0.49626 6.5169 0.79135 6.5169 18.014v14.809h6.8257c11.417 0 17.625-32.319 8.1743-42.551-6.7695-7.3291-20.371-7.2559-28.104 0.15136-2.604 2.4942-2.604 2.4942-4.1751 0.0964-4.6344-7.073-19.138-7.5549-25.126-0.83474-2.7032 3.0339-3.595 2.6662-3.595-1.4821 0-3.6202 0-3.6202-6.0388-3.1834-10.368 0.74993-10.401 0.83134-10.782 26.329l-0.32114 21.474 6.8211-0.0318c3.7773-0.0176 7.5292-0.57542 8.4078-1.25zm-134.16-52.307c6.6634-5.6069 4.4566-15.411-3.4687-15.411-8.2593 0-11.455 2.5112-11.455 9.0023 0 8.1509 8.5098 11.805 14.923 6.4088z" fill="#d51f26"/>
    </g>
  </g>
</svg>
